<svg version="1.1" xmlns="http://www.w3.org/2000/svg" viewBox="0 0 1098 918.5" width="2196" height="1837">
  <!-- svg-source:excalidraw -->
  
  <defs>
    <style>
      @font-face {
        font-family: "Virgil";
        src: url("https://excalidraw.com/Virgil.woff2");
      }
      @font-face {
        font-family: "Cascadia";
        src: url("https://excalidraw.com/Cascadia.woff2");
      }
    </style>
  </defs>
  <rect x="0" y="0" width="1098" height="918.5" fill="#ffffff"></rect><g stroke-linecap="round" transform="translate(10 10) rotate(0 77 54.5)"><path d="M0.65 0.14 C57.4 0.37, 112.6 1.28, 154.83 0.04 M0.73 -0.81 C39.57 -0.01, 81.03 0.42, 153.16 -0.69 M154.05 0.16 C154.12 36.09, 153.37 70.94, 154.71 107.58 M153.17 0.31 C153.71 33.65, 154.39 66.6, 153.75 109.15 M155.97 109.13 C120.65 107.41, 86.8 108.3, -1.01 108.39 M153.1 109.4 C106.39 109.44, 57.63 109.17, -0.1 109.06 M1.08 110.68 C-1.35 75.26, 1.37 39.28, -0.91 0.51 M-0.63 109.81 C0.04 81.29, 1.07 50.88, -0.32 0.33" stroke="#000000" stroke-width="1" fill="none"></path></g><g transform="translate(48 50.5) rotate(0 36.5 13)"><text x="0" y="18" font-family="Virgil, Segoe UI Emoji" font-size="20px" fill="#000000" text-anchor="start" style="white-space: pre;" direction="ltr">Départ</text></g><g stroke-linecap="round" transform="translate(353 13.5) rotate(0 77 54.5)"><path d="M1.2 0.66 C38.29 2.63, 80.02 2.17, 153.87 1.94 M-0.92 0.17 C46.5 0.5, 94.16 0.37, 153.03 0.75 M155.13 -0.12 C155.91 24.68, 153.77 47.88, 152.44 107.43 M153.7 0.17 C152.8 40.8, 153.51 79.16, 153.06 108.68 M155.87 108.11 C111.2 107.78, 72.2 109.14, -1.03 107.24 M154.42 109.79 C119.09 108.86, 83.07 107.39, -0.99 109.48 M0.72 110.61 C1 75.04, 2.22 43.84, -2 -1.47 M0.14 108.22 C-0.2 74.08, -0.49 38.67, -0.27 -0.5" stroke="#000000" stroke-width="1" fill="none"></path></g><g transform="translate(391 54) rotate(0 33 25.5)"><text x="0" y="18.5" font-family="Virgil, Segoe UI Emoji" font-size="20px" fill="#000000" text-anchor="start" style="white-space: pre;" direction="ltr">Osama</text><text x="0" y="44" font-family="Virgil, Segoe UI Emoji" font-size="20px" fill="#000000" text-anchor="start" style="white-space: pre;" direction="ltr">France</text></g><g stroke-linecap="round" transform="translate(629 16.5) rotate(0 77 54.5)"><path d="M0.31 -1.66 C55.94 1.95, 113.82 -0.51, 155.48 -0.07 M-0.22 0.29 C37.82 0.37, 74.16 1.46, 153.63 0.16 M154.54 -0.44 C156.57 22.81, 153.64 50.06, 153.85 108.78 M153.78 -0.09 C154.78 26.02, 154.48 51.33, 153.19 109.64 M153.88 107.28 C106.15 106.16, 57.99 108.19, -1.57 108.27 M154.36 108.38 C111.18 108.86, 70.28 109.76, 0.38 108.9 M0.34 108.55 C-1.33 79.61, -1.98 50.7, -0.72 -1.24 M-0.72 109.98 C-0.69 85.8, -1.17 64.84, 0.1 -0.36" stroke="#000000" stroke-width="1" fill="none"></path></g><g transform="translate(667 57) rotate(0 33.5 25.5)"><text x="0" y="18.5" font-family="Virgil, Segoe UI Emoji" font-size="20px" fill="#000000" text-anchor="start" style="white-space: pre;" direction="ltr">Osama</text><text x="0" y="44" font-family="Virgil, Segoe UI Emoji" font-size="20px" fill="#000000" text-anchor="start" style="white-space: pre;" direction="ltr">Algérie</text></g><g stroke-linecap="round" transform="translate(359 259.5) rotate(0 77 54.5)"><path d="M0.05 0.66 C59.51 -0.78, 120.37 -0.77, 153.38 -0.01 M0.63 -1 C57.02 1.43, 113.97 0.29, 153.8 0.37 M153.46 1.5 C154.9 35.41, 154.95 72.91, 155.37 107.36 M154.47 0.18 C154.41 22.69, 153.23 45.31, 153.51 109.37 M153 107.05 C116.09 110.04, 82.78 110.1, -0.58 107.68 M153.35 108.84 C113.25 108.59, 70.76 108.91, -0.54 109.37 M-0.71 109.47 C0.52 85.91, 1.53 60.37, 1.25 -0.87 M0.04 109.7 C0.38 82.38, 0.14 56.37, -0.53 0.17" stroke="#000000" stroke-width="1" fill="none"></path></g><g transform="translate(397 300) rotate(0 30.5 25.5)"><text x="0" y="18.5" font-family="Virgil, Segoe UI Emoji" font-size="20px" fill="#000000" text-anchor="start" style="white-space: pre;" direction="ltr">Victor</text><text x="0" y="44" font-family="Virgil, Segoe UI Emoji" font-size="20px" fill="#000000" text-anchor="start" style="white-space: pre;" direction="ltr">Suède</text></g><g stroke-linecap="round" transform="translate(637 257.5) rotate(0 77 54.5)"><path d="M-0.64 -0.03 C58.09 -1.38, 116.57 -0.6, 155.76 -1.8 M0.34 0.63 C44.98 -1.84, 89.76 -0.11, 154.17 0.96 M155.59 -1.9 C155.45 36.56, 155.63 71.92, 153.51 108.1 M153.63 -0.83 C155 26.79, 155.55 55.65, 154.65 108.67 M153.28 110.49 C103.68 107.86, 55.56 110.21, 0.38 110.45 M154.49 109.7 C115.64 107.34, 78.12 108.1, -0.77 108.94 M-1.65 108.92 C-0.56 68.3, 1.13 26.54, 0.09 -0.61 M0.1 109.27 C0.75 69.23, 1.53 29.49, -0.69 -0.73" stroke="#000000" stroke-width="1" fill="none"></path></g><g transform="translate(675 298) rotate(0 33 25.5)"><text x="0" y="18.5" font-family="Virgil, Segoe UI Emoji" font-size="20px" fill="#000000" text-anchor="start" style="white-space: pre;" direction="ltr">Osama</text><text x="0" y="44" font-family="Virgil, Segoe UI Emoji" font-size="20px" fill="#000000" text-anchor="start" style="white-space: pre;" direction="ltr">Maroc</text></g><g stroke-linecap="round" transform="translate(359 513.5) rotate(0 77 54.5)"><path d="M1.86 -1.1 C50.32 -0.29, 97.32 -1.14, 153.4 0.65 M0.94 0.76 C60.77 1.59, 120.94 2.01, 153.1 0.29 M155.28 1.4 C153.68 34.19, 154.04 72.1, 155.64 109.68 M153.75 0.61 C153.88 38.78, 153.72 78.08, 153.83 109.87 M152.5 107.83 C95.74 112.19, 34.73 111.25, -0.12 109.59 M153.27 109.73 C104.68 108.73, 56.32 108.56, -0.76 109.67 M0.94 107.23 C0.14 73.77, -2.11 36.28, 1.5 -0.33 M-0.09 108.05 C-0.02 75.99, 1.4 42.22, -0.11 -0.84" stroke="#000000" stroke-width="1" fill="none"></path></g><g transform="translate(397 554) rotate(0 32 25.5)"><text x="0" y="18.5" font-family="Virgil, Segoe UI Emoji" font-size="20px" fill="#000000" text-anchor="start" style="white-space: pre;" direction="ltr">Victor</text><text x="0" y="44" font-family="Virgil, Segoe UI Emoji" font-size="20px" fill="#000000" text-anchor="start" style="white-space: pre;" direction="ltr">Russie</text></g><g stroke-linecap="round" transform="translate(652 518.5) rotate(0 77 54.5)"><path d="M1.29 1.24 C43.12 -1.55, 84.82 -0.29, 153.07 -0.43 M0.94 -0.03 C56.9 -2.01, 115.15 -2.11, 153.72 -0.61 M155.08 -0.53 C152.66 22.87, 152.7 47.24, 153.97 108.92 M153.42 -0.39 C153.2 34.16, 154.93 69.7, 153.7 108.14 M153.42 110.18 C103.93 108.59, 54.91 110.47, -1.57 109.26 M153.85 108.96 C94.38 110.23, 34.29 110.1, -0.87 108.98 M0.58 108.38 C-0.14 70.06, -2.1 32.94, 1.24 -1.59 M-0.76 109.93 C0.24 82.29, 1.59 56.78, 0.86 0.49" stroke="#000000" stroke-width="1" fill="none"></path></g><g transform="translate(690 559) rotate(0 28.5 25.5)"><text x="0" y="18.5" font-family="Virgil, Segoe UI Emoji" font-size="20px" fill="#000000" text-anchor="start" style="white-space: pre;" direction="ltr">Victor</text><text x="0" y="44" font-family="Virgil, Segoe UI Emoji" font-size="20px" fill="#000000" text-anchor="start" style="white-space: pre;" direction="ltr">Mali</text></g><g stroke-linecap="round"><g transform="translate(542 67) rotate(0 29.9323584376462 -0.54358056794851)"><path d="M0.14 -0.66 C10.45 -0.63, 50.94 -0.73, 61.1 -0.72 M-1.24 1.61 C9.06 1.34, 50.38 -1.97, 60.73 -2.7" stroke="#000000" stroke-width="1" fill="none"></path></g><g transform="translate(542 67) rotate(0 29.9323584376462 -0.54358056794851)"><path d="M32.29 11.48 C40.56 8.46, 47.33 4.47, 60.58 -1.22 M33.84 10.27 C43.24 5.41, 52.92 0.61, 61.08 -2.61" stroke="#000000" stroke-width="1" fill="none"></path></g><g transform="translate(542 67) rotate(0 29.9323584376462 -0.54358056794851)"><path d="M30.76 -8.98 C39.24 -7.06, 46.38 -6.11, 60.58 -1.22 M32.31 -10.2 C42.05 -7.97, 52.27 -5.7, 61.08 -2.61" stroke="#000000" stroke-width="1" fill="none"></path></g></g><g stroke-linecap="round"><g transform="translate(425 151) rotate(0 1.015151351729628 39.57447062693535)"><path d="M-0.55 -0.76 C-0.67 12.38, 0.01 66.54, 0.25 79.91 M1.36 1.45 C1.55 14.79, 2.79 65.62, 2.57 78.27" stroke="#000000" stroke-width="1" fill="none"></path></g><g transform="translate(425 151) rotate(0 1.015151351729628 39.57447062693535)"><path d="M-9.15 48.9 C-2.16 60.65, 1.03 70.25, 1.53 79.02 M-8.46 49.55 C-3.67 58.2, -2.24 67.81, 2.58 78.27" stroke="#000000" stroke-width="1" fill="none"></path></g><g transform="translate(425 151) rotate(0 1.015151351729628 39.57447062693535)"><path d="M11.37 48.76 C10.6 60.47, 6.04 70.12, 1.53 79.02 M12.06 49.42 C10.62 58.24, 5.8 67.89, 2.58 78.27" stroke="#000000" stroke-width="1" fill="none"></path></g></g><g stroke-linecap="round"><g transform="translate(705 153) rotate(0 0.23906714879160518 39.34090220499786)"><path d="M0 0.6 C0.2 13.52, 1.73 64.66, 1.93 77.53 M-1.45 -0.14 C-1.49 12.94, 0.09 65.62, 0.95 78.82" stroke="#000000" stroke-width="1" fill="none"></path></g><g transform="translate(705 153) rotate(0 0.23906714879160518 39.34090220499786)"><path d="M-9.56 50.99 C-7.16 59.87, -2.51 72.53, 0.8 78.01 M-10.27 50.11 C-5.72 60.93, -3.15 69.09, 0.35 79.68" stroke="#000000" stroke-width="1" fill="none"></path></g><g transform="translate(705 153) rotate(0 0.23906714879160518 39.34090220499786)"><path d="M10.94 50.09 C5.9 59.3, 3.12 72.28, 0.8 78.01 M10.23 49.2 C7.81 60.4, 3.4 68.87, 0.35 79.68" stroke="#000000" stroke-width="1" fill="none"></path></g></g><g stroke-linecap="round"><g transform="translate(440 398) rotate(0 0.12701958158919524 44.965180195663095)"><path d="M0.67 0.52 C0.75 15.16, 0.4 74.14, 0.32 88.77 M-0.43 -0.26 C-0.42 14.5, -0.14 75.27, -0.09 90.19" stroke="#000000" stroke-width="1" fill="none"></path></g><g transform="translate(440 398) rotate(0 0.12701958158919524 44.965180195663095)"><path d="M-9.6 63.76 C-7.62 71.65, -5.37 79.25, 1.11 88.5 M-10.48 61.62 C-8.84 68.96, -6.06 75.33, 0.08 89.6" stroke="#000000" stroke-width="1" fill="none"></path></g><g transform="translate(440 398) rotate(0 0.12701958158919524 44.965180195663095)"><path d="M10.92 63.68 C6.93 71.71, 3.22 79.33, 1.11 88.5 M10.04 61.54 C7.1 69.04, 5.31 75.43, 0.08 89.6" stroke="#000000" stroke-width="1" fill="none"></path></g></g><g stroke-linecap="round"><g transform="translate(719.358565434201 398.5) rotate(0 -0.04327937231130363 44.33819236718119)"><path d="M-0.33 -1.08 C-0.63 14.03, -1.55 74.57, -1.78 89.76 M1.69 0.96 C1.76 15.81, 0.54 73.49, 0.37 88.04" stroke="#000000" stroke-width="1" fill="none"></path></g><g transform="translate(719.358565434201 398.5) rotate(0 -0.04327937231130363 44.33819236718119)"><path d="M-11.23 57.91 C-5.44 66.56, -2.06 78.06, -1.42 89.61 M-9.33 59.33 C-6.07 69.61, -1.87 80.88, -0.34 87.73" stroke="#000000" stroke-width="1" fill="none"></path></g><g transform="translate(719.358565434201 398.5) rotate(0 -0.04327937231130363 44.33819236718119)"><path d="M9.29 58.25 C8.95 66.74, 6.2 78.14, -1.42 89.61 M11.18 59.67 C6.56 69.94, 2.87 81.08, -0.34 87.73" stroke="#000000" stroke-width="1" fill="none"></path></g></g><g stroke-linecap="round"><g transform="translate(542 579) rotate(0 40.09915485741567 -0.6587206916336186)"><path d="M1 0.13 C14.38 0.1, 66.9 0.37, 80.14 0.05 M0.06 -0.84 C13.31 -1.22, 65.95 -1.52, 79.26 -1.52" stroke="#000000" stroke-width="1" fill="none"></path></g><g transform="translate(542 579) rotate(0 40.09915485741567 -0.6587206916336186)"><path d="M51.34 9.08 C60.94 6.38, 65.99 3.46, 80.03 -1.48 M51.39 7.88 C57.49 5.81, 66.29 3.47, 78.77 -1.63" stroke="#000000" stroke-width="1" fill="none"></path></g><g transform="translate(542 579) rotate(0 40.09915485741567 -0.6587206916336186)"><path d="M51.26 -11.44 C60.94 -8.23, 66 -5.24, 80.03 -1.48 M51.31 -12.64 C57.4 -9.45, 66.22 -6.53, 78.77 -1.63" stroke="#000000" stroke-width="1" fill="none"></path></g></g><g stroke-linecap="round"><g transform="translate(799 335.0000000000001) rotate(0 52.89403334926817 0.9048141967829224)"><path d="M1.12 0.22 C18.49 0.49, 86.19 2.28, 103.23 2.54 M0.25 -0.71 C18.09 -0.87, 88.54 0.08, 105.54 0.7" stroke="#000000" stroke-width="1" fill="none"></path></g><g transform="translate(799 335.0000000000001) rotate(0 52.89403334926817 0.9048141967829224)"><path d="M77.49 9.03 C84.19 6.82, 89.17 4.77, 105.46 2.54 M76.84 10.62 C84.95 8.98, 91.71 5.97, 105.33 1.21" stroke="#000000" stroke-width="1" fill="none"></path></g><g transform="translate(799 335.0000000000001) rotate(0 52.89403334926817 0.9048141967829224)"><path d="M77.95 -11.48 C84.7 -9.19, 89.59 -6.72, 105.46 2.54 M77.31 -9.9 C85.14 -6.22, 91.77 -3.91, 105.33 1.21" stroke="#000000" stroke-width="1" fill="none"></path></g></g><g stroke-linecap="round" transform="translate(654 799.5) rotate(0 77 54.5)"><path d="M1.63 -1.51 C43.91 0.91, 87.49 0.88, 155.98 1.72 M-0.1 0.02 C40.18 -0.74, 80.67 -1.23, 153.21 -0.94 M153.99 1.51 C152.6 36.88, 154.47 78.36, 153.22 110.46 M153.28 -0.87 C154.73 29.37, 154.78 57.29, 154.91 108.14 M152.06 107.31 C115.87 108.65, 81.9 110.42, -0.05 109.31 M153.49 109.44 C115.54 109.43, 78.6 109.43, 0.47 109.43 M-0.66 108.28 C0.72 80.68, -1.22 53.85, 0.45 -0.76 M0.37 108.72 C-0.9 86.15, 0.74 65.32, 0.48 0.52" stroke="#000000" stroke-width="1" fill="none"></path></g><g transform="translate(691 839) rotate(0 34.5 25.5)"><text x="0" y="18.5" font-family="Virgil, Segoe UI Emoji" font-size="20px" fill="#000000" text-anchor="start" style="white-space: pre;" direction="ltr">Arrivée</text><text x="0" y="44" font-family="Virgil, Segoe UI Emoji" font-size="20px" fill="#000000" text-anchor="start" style="white-space: pre;" direction="ltr"></text></g><g stroke-linecap="round"><g transform="translate(728 664) rotate(0 0.6533355223670014 53.01034665642305)"><path d="M-0.65 0.03 C-0.42 17.99, 1.46 89.22, 1.96 107.01 M1.2 -0.99 C1.2 16.71, 0.78 87.78, 0.85 105.42" stroke="#000000" stroke-width="1" fill="none"></path></g><g transform="translate(728 664) rotate(0 0.6533355223670014 53.01034665642305)"><path d="M-9.31 76.69 C-4.3 87.15, -1.12 97.98, 0.95 105.05 M-9.17 77.18 C-6.69 85.41, -2.51 93.87, 0.3 105.54" stroke="#000000" stroke-width="1" fill="none"></path></g><g transform="translate(728 664) rotate(0 0.6533355223670014 53.01034665642305)"><path d="M11.21 76.73 C9.1 87.06, 5.16 97.88, 0.95 105.05 M11.35 77.21 C7.78 85.3, 5.91 93.75, 0.3 105.54" stroke="#000000" stroke-width="1" fill="none"></path></g></g><g stroke-linecap="round" transform="translate(934 259.5) rotate(0 77 54.5)"><path d="M-1.58 -0.77 C53.34 0.52, 107.04 -1.02, 155.65 1.42 M-0.28 0.6 C33.34 0.24, 66.03 -1.18, 153.57 -0.5 M154.35 -1.28 C155.46 22.58, 154.69 44.86, 152.39 108.97 M153.01 -0.61 C154.44 35.84, 153.78 69.78, 153.27 108.61 M152.87 107.31 C118.68 107.88, 82.76 107.51, 0.48 109.16 M153.62 109.75 C111.25 109.83, 68.52 109.72, 0.86 108.67 M-1.75 110.34 C0.15 70.16, -1.6 31.09, -0.14 -0.98 M-0.24 108.7 C0.12 84.31, 0.06 57.39, 0.87 -0.05" stroke="#000000" stroke-width="1" fill="none"></path></g><g transform="translate(977 288) rotate(0 34.5 25.5)"><text x="0" y="18.5" font-family="Virgil, Segoe UI Emoji" font-size="20px" fill="#000000" text-anchor="start" style="white-space: pre;" direction="ltr">GAME </text><text x="0" y="44" font-family="Virgil, Segoe UI Emoji" font-size="20px" fill="#000000" text-anchor="start" style="white-space: pre;" direction="ltr">OVER</text></g><g stroke-linecap="round"><g transform="translate(195 68) rotate(0 64.09886925666592 -0.21186147482984552)"><path d="M0.84 -1.06 C22.19 -1.43, 107.08 -1.44, 128.38 -1.4 M-0.18 0.99 C21.02 0.72, 106.23 -0.01, 127.63 -0.07" stroke="#000000" stroke-width="1" fill="none"></path></g><g transform="translate(195 68) rotate(0 64.09886925666592 -0.21186147482984552)"><path d="M97.73 10.99 C107.84 7.88, 117.93 4.02, 128.78 -0.89 M98.87 10.89 C107.48 7.95, 114.9 4.32, 127.66 -0.65" stroke="#000000" stroke-width="1" fill="none"></path></g><g transform="translate(195 68) rotate(0 64.09886925666592 -0.21186147482984552)"><path d="M97.6 -9.53 C107.89 -6.02, 118.03 -3.27, 128.78 -0.89 M98.74 -9.63 C107.43 -6.98, 114.89 -5.01, 127.66 -0.65" stroke="#000000" stroke-width="1" fill="none"></path></g></g></svg>